<svg xmlns="http://www.w3.org/2000/svg" xmlns:xlink="http://www.w3.org/1999/xlink" width="600" zoomAndPan="magnify" viewBox="0 0 450 675.000002" height="900" preserveAspectRatio="xMidYMid meet" version="1.0"><defs><clipPath id="bd07b46cff"><path d="M 0.332031 0 L 449.667969 0 L 449.667969 674 L 0.332031 674 Z M 0.332031 0 " clip-rule="nonzero"/></clipPath><clipPath id="391fd102ec"><path d="M 21.300781 0 L 428.699219 0 C 440.277344 0 449.667969 9.386719 449.667969 20.96875 L 449.667969 653.03125 C 449.667969 664.613281 440.277344 674 428.699219 674 L 21.300781 674 C 9.722656 674 0.332031 664.613281 0.332031 653.03125 L 0.332031 20.96875 C 0.332031 9.386719 9.722656 0 21.300781 0 Z M 21.300781 0 " clip-rule="nonzero"/></clipPath><clipPath id="18f8cdf320"><path d="M 28.03125 23.730469 L 97.707031 23.730469 L 97.707031 92.792969 L 28.03125 92.792969 Z M 28.03125 23.730469 " clip-rule="nonzero"/></clipPath><clipPath id="22f3bb727d"><path d="M 28.03125 23.730469 L 184 23.730469 L 184 179 L 28.03125 179 Z M 28.03125 23.730469 " clip-rule="nonzero"/></clipPath><clipPath id="92cbe17b9e"><path d="M 28.03125 23.730469 L 269.351562 23.730469 L 269.351562 265 L 28.03125 265 Z M 28.03125 23.730469 " clip-rule="nonzero"/></clipPath><clipPath id="a5cafe7a3f"><path d="M 28.03125 23.730469 L 356 23.730469 L 356 351 L 28.03125 351 Z M 28.03125 23.730469 " clip-rule="nonzero"/></clipPath><clipPath id="5c9fc65434"><path d="M 28.03125 23.730469 L 418.898438 23.730469 L 418.898438 437.777344 L 28.03125 437.777344 Z M 28.03125 23.730469 " clip-rule="nonzero"/></clipPath><clipPath id="33ff73b4c8"><path d="M 28.03125 64 L 421.925781 64 L 421.925781 524 L 28.03125 524 Z M 28.03125 64 " clip-rule="nonzero"/></clipPath><clipPath id="b3c3a338da"><path d="M 28.03125 150.570312 L 421.925781 150.570312 L 421.925781 609.417969 L 28.03125 609.417969 Z M 28.03125 150.570312 " clip-rule="nonzero"/></clipPath><clipPath id="2df1ee94fd"><path d="M 352.621094 581 L 421.925781 581 L 421.925781 650.203125 L 352.621094 650.203125 Z M 352.621094 581 " clip-rule="nonzero"/></clipPath><clipPath id="46c2276fa7"><path d="M 266 495 L 421.925781 495 L 421.925781 650.203125 L 266 650.203125 Z M 266 495 " clip-rule="nonzero"/></clipPath><clipPath id="f9fd6427a8"><path d="M 180 409 L 421.925781 409 L 421.925781 650.203125 L 180 650.203125 Z M 180 409 " clip-rule="nonzero"/></clipPath><clipPath id="5616f50428"><path d="M 94.308594 322.214844 L 421.925781 322.214844 L 421.925781 650.203125 L 94.308594 650.203125 Z M 94.308594 322.214844 " clip-rule="nonzero"/></clipPath><clipPath id="0ee0cd20d9"><path d="M 31 236 L 421.925781 236 L 421.925781 650.203125 L 31 650.203125 Z M 31 236 " clip-rule="nonzero"/></clipPath></defs><g clip-path="url(#bd07b46cff)"><g clip-path="url(#391fd102ec)"><path fill="#f79f0e" d="M 0.332031 0 L 449.667969 0 L 449.667969 674 L 0.332031 674 Z M 0.332031 0 " fill-opacity="1" fill-rule="nonzero"/></g></g><g clip-path="url(#18f8cdf320)"><path fill="#154e06" d="M 97.023438 23.726562 L 65.976562 23.726562 C 45.105469 23.726562 28.03125 40.800781 28.03125 61.671875 L 28.03125 92.71875 L 97.023438 23.726562 " fill-opacity="1" fill-rule="evenodd"/></g><g clip-path="url(#22f3bb727d)"><path fill="#154e06" d="M 183.105469 23.726562 L 118.589844 23.726562 L 28.03125 114.285156 L 28.03125 178.796875 L 183.105469 23.726562 " fill-opacity="1" fill-rule="evenodd"/></g><g clip-path="url(#92cbe17b9e)"><path fill="#154e06" d="M 269.191406 23.726562 L 204.671875 23.726562 L 28.03125 200.367188 L 28.03125 264.886719 L 269.191406 23.726562 " fill-opacity="1" fill-rule="evenodd"/></g><g clip-path="url(#a5cafe7a3f)"><path fill="#154e06" d="M 355.269531 23.726562 L 290.757812 23.726562 L 28.03125 286.453125 L 28.03125 350.964844 L 355.269531 23.726562 " fill-opacity="1" fill-rule="evenodd"/></g><g clip-path="url(#5c9fc65434)"><path fill="#154e06" d="M 418.695312 46.382812 C 412.785156 33.074219 399.429688 23.726562 383.996094 23.726562 L 376.839844 23.726562 L 28.03125 372.535156 L 28.03125 437.050781 L 418.695312 46.382812 " fill-opacity="1" fill-rule="evenodd"/></g><g clip-path="url(#33ff73b4c8)"><path fill="#154e06" d="M 421.933594 129.230469 L 421.933594 64.71875 L 28.03125 458.621094 L 28.03125 523.132812 L 421.933594 129.230469 " fill-opacity="1" fill-rule="evenodd"/></g><g clip-path="url(#b3c3a338da)"><path fill="#154e06" d="M 421.933594 215.316406 L 421.933594 150.796875 L 28.03125 544.699219 L 28.03125 609.21875 L 421.933594 215.316406 " fill-opacity="1" fill-rule="evenodd"/></g><g clip-path="url(#2df1ee94fd)"><path fill="#154e06" d="M 352.941406 650.203125 L 383.996094 650.203125 C 404.859375 650.203125 421.933594 633.128906 421.933594 612.257812 L 421.933594 581.210938 L 352.941406 650.203125 " fill-opacity="1" fill-rule="evenodd"/></g><g clip-path="url(#46c2276fa7)"><path fill="#154e06" d="M 266.859375 650.203125 L 331.371094 650.203125 L 421.933594 559.644531 L 421.933594 495.132812 L 266.859375 650.203125 " fill-opacity="1" fill-rule="evenodd"/></g><g clip-path="url(#f9fd6427a8)"><path fill="#154e06" d="M 180.773438 650.203125 L 245.292969 650.203125 L 421.933594 473.5625 L 421.933594 409.050781 L 180.773438 650.203125 " fill-opacity="1" fill-rule="evenodd"/></g><g clip-path="url(#5616f50428)"><path fill="#154e06" d="M 94.695312 650.203125 L 159.210938 650.203125 L 421.933594 387.476562 L 421.933594 322.964844 L 94.695312 650.203125 " fill-opacity="1" fill-rule="evenodd"/></g><g clip-path="url(#0ee0cd20d9)"><path fill="#154e06" d="M 65.976562 650.203125 L 73.125 650.203125 L 421.933594 301.398438 L 421.933594 236.878906 L 31.269531 627.546875 C 37.179688 640.859375 50.535156 650.203125 65.976562 650.203125 " fill-opacity="1" fill-rule="evenodd"/></g></svg>