<svg xmlns="http://www.w3.org/2000/svg" xmlns:xlink="http://www.w3.org/1999/xlink" width="501" zoomAndPan="magnify" viewBox="0 0 375.75 375.749991" height="501" preserveAspectRatio="xMidYMid meet" version="1.0"><defs><clipPath id="bb8d4d4e2f"><path d="M 20.492188 20.488281 L 354.472656 20.488281 L 354.472656 354.464844 L 20.492188 354.464844 Z M 20.492188 20.488281 " clip-rule="nonzero"/></clipPath><clipPath id="f40e89ae2a"><path d="M 55.050781 186 L 318.675781 186 L 318.675781 320.890625 L 55.050781 320.890625 Z M 55.050781 186 " clip-rule="nonzero"/></clipPath><clipPath id="b95238d1fc"><path d="M 55.050781 54.171875 L 318.675781 54.171875 L 318.675781 188 L 55.050781 188 Z M 55.050781 54.171875 " clip-rule="nonzero"/></clipPath><clipPath id="872f32cfbd"><path d="M 92 94 L 281 94 L 281 283 L 92 283 Z M 92 94 " clip-rule="nonzero"/></clipPath><clipPath id="9644fad7ac"><path d="M 0 188.679688 L 188.601562 0.078125 L 375.011719 186.492188 L 186.414062 375.089844 Z M 0 188.679688 " clip-rule="nonzero"/></clipPath><clipPath id="6055197476"><path d="M 0 188.679688 L 188.601562 0.078125 L 375.011719 186.492188 L 186.414062 375.089844 Z M 0 188.679688 " clip-rule="nonzero"/></clipPath><clipPath id="9cee3527d8"><path d="M 94 92 L 283 92 L 283 281 L 94 281 Z M 94 92 " clip-rule="nonzero"/></clipPath><clipPath id="7d474942a2"><path d="M 0 188.679688 L 188.601562 0.078125 L 375.011719 186.492188 L 186.414062 375.089844 Z M 0 188.679688 " clip-rule="nonzero"/></clipPath><clipPath id="5fba362f5c"><path d="M 0 188.679688 L 188.601562 0.078125 L 375.011719 186.492188 L 186.414062 375.089844 Z M 0 188.679688 " clip-rule="nonzero"/></clipPath><clipPath id="58fb6dbea3"><path d="M 128.09375 165 L 245.605469 165 L 245.605469 233.734375 L 128.09375 233.734375 Z M 128.09375 165 " clip-rule="nonzero"/></clipPath></defs><g clip-path="url(#bb8d4d4e2f)"><path fill="#ffb300" d="M 354.472656 187.476562 C 354.472656 190.210938 354.402344 192.941406 354.269531 195.671875 C 354.136719 198.398438 353.933594 201.125 353.667969 203.84375 C 353.398438 206.5625 353.066406 209.277344 352.664062 211.980469 C 352.261719 214.683594 351.796875 217.375 351.261719 220.054688 C 350.730469 222.734375 350.128906 225.402344 349.464844 228.050781 C 348.800781 230.703125 348.074219 233.335938 347.28125 235.953125 C 346.488281 238.566406 345.628906 241.160156 344.710938 243.734375 C 343.789062 246.308594 342.804688 248.855469 341.757812 251.378906 C 340.714844 253.90625 339.605469 256.402344 338.4375 258.875 C 337.269531 261.34375 336.042969 263.785156 334.753906 266.195312 C 333.464844 268.605469 332.117188 270.984375 330.714844 273.328125 C 329.308594 275.671875 327.847656 277.980469 326.328125 280.25 C 324.808594 282.523438 323.238281 284.757812 321.609375 286.953125 C 319.980469 289.148438 318.300781 291.300781 316.566406 293.414062 C 314.832031 295.527344 313.046875 297.59375 311.210938 299.621094 C 309.378906 301.644531 307.492188 303.625 305.5625 305.554688 C 303.628906 307.488281 301.648438 309.371094 299.625 311.207031 C 297.601562 313.042969 295.53125 314.828125 293.417969 316.5625 C 291.304688 318.296875 289.152344 319.976562 286.957031 321.605469 C 284.761719 323.230469 282.527344 324.804688 280.253906 326.324219 C 277.984375 327.84375 275.675781 329.304688 273.332031 330.707031 C 270.988281 332.113281 268.609375 333.460938 266.199219 334.75 C 263.789062 336.035156 261.347656 337.265625 258.878906 338.433594 C 256.40625 339.601562 253.910156 340.710938 251.386719 341.753906 C 248.859375 342.800781 246.3125 343.785156 243.738281 344.703125 C 241.164062 345.625 238.570312 346.484375 235.957031 347.277344 C 233.339844 348.070312 230.707031 348.796875 228.054688 349.460938 C 225.40625 350.125 222.738281 350.722656 220.058594 351.257812 C 217.378906 351.789062 214.6875 352.257812 211.984375 352.660156 C 209.28125 353.058594 206.570312 353.394531 203.847656 353.664062 C 201.128906 353.929688 198.40625 354.132812 195.675781 354.265625 C 192.945312 354.398438 190.214844 354.464844 187.480469 354.464844 C 184.75 354.464844 182.015625 354.398438 179.289062 354.265625 C 176.558594 354.132812 173.832031 353.929688 171.113281 353.664062 C 168.394531 353.394531 165.683594 353.058594 162.980469 352.660156 C 160.277344 352.257812 157.582031 351.789062 154.902344 351.257812 C 152.222656 350.722656 149.558594 350.125 146.90625 349.460938 C 144.253906 348.796875 141.621094 348.070312 139.007812 347.277344 C 136.390625 346.484375 133.796875 345.625 131.222656 344.703125 C 128.652344 343.785156 126.101562 342.800781 123.578125 341.753906 C 121.050781 340.710938 118.554688 339.601562 116.082031 338.433594 C 113.613281 337.265625 111.171875 336.035156 108.761719 334.75 C 106.351562 333.460938 103.976562 332.113281 101.632812 330.707031 C 99.289062 329.304688 96.980469 327.84375 94.707031 326.324219 C 92.433594 324.804688 90.199219 323.230469 88.003906 321.605469 C 85.808594 319.976562 83.65625 318.296875 81.542969 316.5625 C 79.429688 314.828125 77.363281 313.042969 75.335938 311.207031 C 73.3125 309.371094 71.335938 307.488281 69.402344 305.554688 C 67.46875 303.625 65.585938 301.644531 63.75 299.621094 C 61.914062 297.59375 60.128906 295.527344 58.394531 293.414062 C 56.664062 291.300781 54.980469 289.148438 53.355469 286.953125 C 51.726562 284.757812 50.152344 282.523438 48.632812 280.25 C 47.117188 277.980469 45.65625 275.671875 44.25 273.328125 C 42.84375 270.984375 41.496094 268.605469 40.210938 266.195312 C 38.921875 263.785156 37.691406 261.34375 36.523438 258.875 C 35.355469 256.402344 34.25 253.90625 33.203125 251.378906 C 32.15625 248.855469 31.171875 246.308594 30.253906 243.734375 C 29.332031 241.160156 28.476562 238.566406 27.683594 235.953125 C 26.886719 233.335938 26.160156 230.703125 25.496094 228.050781 C 24.832031 225.402344 24.234375 222.734375 23.699219 220.054688 C 23.167969 217.375 22.699219 214.683594 22.300781 211.980469 C 21.898438 209.277344 21.5625 206.5625 21.296875 203.84375 C 21.027344 201.125 20.828125 198.398438 20.691406 195.671875 C 20.558594 192.941406 20.492188 190.210938 20.492188 187.476562 C 20.492188 184.742188 20.558594 182.011719 20.691406 179.28125 C 20.828125 176.554688 21.027344 173.828125 21.296875 171.109375 C 21.5625 168.390625 21.898438 165.675781 22.300781 162.972656 C 22.699219 160.269531 23.167969 157.578125 23.699219 154.898438 C 24.234375 152.21875 24.832031 149.550781 25.496094 146.902344 C 26.160156 144.25 26.886719 141.617188 27.683594 139.003906 C 28.476562 136.386719 29.332031 133.792969 30.253906 131.21875 C 31.171875 128.644531 32.15625 126.097656 33.203125 123.574219 C 34.25 121.046875 35.355469 118.550781 36.523438 116.078125 C 37.691406 113.609375 38.921875 111.167969 40.210938 108.757812 C 41.496094 106.347656 42.84375 103.972656 44.25 101.625 C 45.65625 99.28125 47.117188 96.972656 48.632812 94.703125 C 50.152344 92.429688 51.726562 90.195312 53.355469 88 C 54.980469 85.804688 56.664062 83.652344 58.394531 81.539062 C 60.128906 79.425781 61.914062 77.359375 63.75 75.332031 C 65.585938 73.308594 67.46875 71.328125 69.402344 69.398438 C 71.335938 67.464844 73.3125 65.582031 75.335938 63.746094 C 77.363281 61.910156 79.429688 60.125 81.542969 58.390625 C 83.65625 56.65625 85.808594 54.976562 88.003906 53.347656 C 90.199219 51.722656 92.433594 50.148438 94.707031 48.628906 C 96.980469 47.113281 99.289062 45.648438 101.632812 44.246094 C 103.976562 42.839844 106.351562 41.492188 108.761719 40.203125 C 111.171875 38.917969 113.613281 37.6875 116.082031 36.519531 C 118.554688 35.351562 121.050781 34.242188 123.578125 33.199219 C 126.101562 32.152344 128.652344 31.167969 131.222656 30.25 C 133.796875 29.328125 136.390625 28.472656 139.007812 27.675781 C 141.621094 26.882812 144.253906 26.15625 146.90625 25.492188 C 149.558594 24.828125 152.222656 24.230469 154.902344 23.695312 C 157.582031 23.164062 160.277344 22.695312 162.980469 22.292969 C 165.683594 21.894531 168.394531 21.558594 171.113281 21.292969 C 173.832031 21.023438 176.558594 20.820312 179.289062 20.6875 C 182.015625 20.554688 184.75 20.488281 187.480469 20.488281 C 190.214844 20.488281 192.945312 20.554688 195.675781 20.6875 C 198.40625 20.820312 201.128906 21.023438 203.847656 21.292969 C 206.570312 21.558594 209.28125 21.894531 211.984375 22.292969 C 214.6875 22.695312 217.378906 23.164062 220.058594 23.695312 C 222.738281 24.230469 225.40625 24.828125 228.054688 25.492188 C 230.707031 26.15625 233.339844 26.882812 235.957031 27.675781 C 238.570312 28.472656 241.164062 29.328125 243.738281 30.25 C 246.3125 31.167969 248.859375 32.152344 251.386719 33.199219 C 253.910156 34.242188 256.40625 35.351562 258.878906 36.519531 C 261.347656 37.6875 263.789062 38.917969 266.199219 40.203125 C 268.609375 41.492188 270.988281 42.839844 273.332031 44.246094 C 275.675781 45.648438 277.984375 47.113281 280.253906 48.628906 C 282.527344 50.148438 284.761719 51.722656 286.957031 53.347656 C 289.152344 54.976562 291.304688 56.65625 293.417969 58.390625 C 295.53125 60.125 297.601562 61.910156 299.625 63.746094 C 301.648438 65.582031 303.628906 67.464844 305.5625 69.398438 C 307.492188 71.328125 309.378906 73.308594 311.210938 75.332031 C 313.046875 77.359375 314.832031 79.425781 316.566406 81.539062 C 318.300781 83.652344 319.980469 85.804688 321.609375 88 C 323.238281 90.195312 324.808594 92.429688 326.328125 94.703125 C 327.847656 96.972656 329.308594 99.28125 330.714844 101.625 C 332.117188 103.972656 333.464844 106.347656 334.753906 108.757812 C 336.042969 111.167969 337.269531 113.609375 338.4375 116.078125 C 339.605469 118.550781 340.714844 121.046875 341.757812 123.574219 C 342.804688 126.097656 343.789062 128.644531 344.710938 131.21875 C 345.628906 133.792969 346.488281 136.386719 347.28125 139.003906 C 348.074219 141.617188 348.800781 144.25 349.464844 146.902344 C 350.128906 149.550781 350.730469 152.21875 351.261719 154.898438 C 351.796875 157.578125 352.261719 160.269531 352.664062 162.972656 C 353.066406 165.675781 353.398438 168.390625 353.667969 171.109375 C 353.933594 173.828125 354.136719 176.554688 354.269531 179.28125 C 354.402344 182.011719 354.472656 184.742188 354.472656 187.476562 Z M 354.472656 187.476562 " fill-opacity="1" fill-rule="nonzero"/></g><path fill="#ffd54f" d="M 344.789062 187.476562 C 344.789062 190.050781 344.726562 192.625 344.601562 195.195312 C 344.476562 197.765625 344.285156 200.332031 344.03125 202.894531 C 343.78125 205.457031 343.464844 208.011719 343.085938 210.558594 C 342.710938 213.105469 342.269531 215.640625 341.769531 218.167969 C 341.265625 220.691406 340.703125 223.203125 340.074219 225.699219 C 339.449219 228.195312 338.765625 230.675781 338.015625 233.140625 C 337.269531 235.605469 336.460938 238.046875 335.59375 240.472656 C 334.726562 242.898438 333.800781 245.296875 332.816406 247.675781 C 331.832031 250.054688 330.789062 252.40625 329.6875 254.734375 C 328.585938 257.0625 327.429688 259.359375 326.214844 261.632812 C 325 263.902344 323.734375 266.140625 322.410156 268.351562 C 321.085938 270.558594 319.710938 272.730469 318.277344 274.871094 C 316.847656 277.011719 315.367188 279.117188 313.832031 281.1875 C 312.300781 283.253906 310.714844 285.28125 309.082031 287.273438 C 307.449219 289.261719 305.769531 291.210938 304.039062 293.117188 C 302.3125 295.027344 300.535156 296.890625 298.714844 298.710938 C 296.894531 300.53125 295.03125 302.304688 293.125 304.035156 C 291.214844 305.765625 289.265625 307.445312 287.277344 309.078125 C 285.285156 310.710938 283.257812 312.292969 281.191406 313.828125 C 279.121094 315.363281 277.019531 316.84375 274.878906 318.273438 C 272.738281 319.703125 270.5625 321.082031 268.355469 322.40625 C 266.144531 323.730469 263.90625 324.996094 261.636719 326.210938 C 259.367188 327.425781 257.066406 328.582031 254.738281 329.683594 C 252.414062 330.78125 250.058594 331.824219 247.679688 332.8125 C 245.300781 333.796875 242.902344 334.722656 240.476562 335.589844 C 238.054688 336.457031 235.609375 337.265625 233.144531 338.011719 C 230.683594 338.757812 228.203125 339.445312 225.703125 340.070312 C 223.207031 340.695312 220.695312 341.261719 218.171875 341.761719 C 215.644531 342.265625 213.109375 342.707031 210.5625 343.082031 C 208.015625 343.460938 205.460938 343.777344 202.898438 344.027344 C 200.339844 344.28125 197.769531 344.46875 195.199219 344.597656 C 192.628906 344.722656 190.054688 344.785156 187.480469 344.785156 C 184.90625 344.785156 182.332031 344.722656 179.761719 344.597656 C 177.191406 344.46875 174.625 344.28125 172.0625 344.027344 C 169.5 343.777344 166.945312 343.460938 164.398438 343.082031 C 161.851562 342.707031 159.316406 342.265625 156.792969 341.761719 C 154.265625 341.261719 151.753906 340.695312 149.257812 340.070312 C 146.761719 339.445312 144.28125 338.757812 141.816406 338.011719 C 139.351562 337.265625 136.910156 336.457031 134.484375 335.589844 C 132.0625 334.722656 129.660156 333.796875 127.28125 332.8125 C 124.902344 331.824219 122.550781 330.78125 120.222656 329.683594 C 117.894531 328.582031 115.597656 327.425781 113.324219 326.210938 C 111.054688 324.996094 108.816406 323.730469 106.609375 322.40625 C 104.398438 321.082031 102.226562 319.703125 100.085938 318.273438 C 97.945312 316.84375 95.839844 315.363281 93.773438 313.828125 C 91.703125 312.292969 89.675781 310.710938 87.683594 309.078125 C 85.695312 307.445312 83.746094 305.765625 81.839844 304.035156 C 79.929688 302.304688 78.066406 300.53125 76.246094 298.710938 C 74.425781 296.890625 72.652344 295.027344 70.921875 293.117188 C 69.195312 291.210938 67.511719 289.261719 65.878906 287.273438 C 64.246094 285.28125 62.664062 283.253906 61.128906 281.1875 C 59.59375 279.117188 58.113281 277.011719 56.683594 274.871094 C 55.253906 272.730469 53.875 270.558594 52.550781 268.351562 C 51.230469 266.140625 49.960938 263.902344 48.746094 261.632812 C 47.535156 259.359375 46.375 257.0625 45.277344 254.734375 C 44.175781 252.40625 43.132812 250.054688 42.144531 247.675781 C 41.160156 245.296875 40.234375 242.898438 39.367188 240.472656 C 38.5 238.046875 37.691406 235.605469 36.945312 233.140625 C 36.199219 230.675781 35.511719 228.195312 34.886719 225.699219 C 34.261719 223.203125 33.695312 220.691406 33.195312 218.167969 C 32.691406 215.640625 32.253906 213.105469 31.875 210.558594 C 31.496094 208.011719 31.183594 205.457031 30.929688 202.894531 C 30.675781 200.332031 30.488281 197.765625 30.363281 195.195312 C 30.234375 192.625 30.171875 190.050781 30.171875 187.476562 C 30.171875 184.902344 30.234375 182.328125 30.363281 179.757812 C 30.488281 177.1875 30.675781 174.621094 30.929688 172.058594 C 31.183594 169.496094 31.496094 166.941406 31.875 164.394531 C 32.253906 161.847656 32.691406 159.3125 33.195312 156.789062 C 33.695312 154.261719 34.261719 151.75 34.886719 149.253906 C 35.511719 146.757812 36.199219 144.277344 36.945312 141.8125 C 37.691406 139.347656 38.5 136.90625 39.367188 134.480469 C 40.234375 132.058594 41.160156 129.65625 42.144531 127.277344 C 43.132812 124.898438 44.175781 122.546875 45.277344 120.21875 C 46.375 117.890625 47.535156 115.59375 48.746094 113.320312 C 49.960938 111.050781 51.230469 108.8125 52.550781 106.605469 C 53.875 104.394531 55.253906 102.222656 56.683594 100.082031 C 58.113281 97.941406 59.59375 95.835938 61.128906 93.769531 C 62.664062 91.699219 64.246094 89.671875 65.878906 87.679688 C 67.511719 85.691406 69.195312 83.742188 70.921875 81.835938 C 72.652344 79.925781 74.425781 78.0625 76.246094 76.242188 C 78.066406 74.421875 79.929688 72.648438 81.839844 70.917969 C 83.746094 69.1875 85.695312 67.507812 87.683594 65.875 C 89.675781 64.242188 91.703125 62.660156 93.773438 61.125 C 95.839844 59.589844 97.945312 58.109375 100.085938 56.679688 C 102.226562 55.25 104.398438 53.871094 106.609375 52.546875 C 108.816406 51.222656 111.054688 49.957031 113.324219 48.742188 C 115.597656 47.527344 117.894531 46.371094 120.222656 45.269531 C 122.550781 44.171875 124.902344 43.128906 127.28125 42.140625 C 129.660156 41.15625 132.0625 40.230469 134.484375 39.363281 C 136.910156 38.496094 139.351562 37.6875 141.816406 36.941406 C 144.28125 36.195312 146.761719 35.507812 149.257812 34.882812 C 151.753906 34.257812 154.265625 33.691406 156.792969 33.191406 C 159.316406 32.6875 161.851562 32.246094 164.398438 31.871094 C 166.945312 31.492188 169.5 31.175781 172.0625 30.925781 C 174.625 30.671875 177.191406 30.484375 179.761719 30.355469 C 182.332031 30.230469 184.90625 30.167969 187.480469 30.167969 C 190.054688 30.167969 192.628906 30.230469 195.199219 30.355469 C 197.769531 30.484375 200.339844 30.671875 202.898438 30.925781 C 205.460938 31.175781 208.015625 31.492188 210.5625 31.871094 C 213.109375 32.246094 215.644531 32.6875 218.171875 33.191406 C 220.695312 33.691406 223.207031 34.257812 225.703125 34.882812 C 228.203125 35.507812 230.683594 36.195312 233.144531 36.941406 C 235.609375 37.6875 238.054688 38.496094 240.476562 39.363281 C 242.902344 40.230469 245.300781 41.15625 247.679688 42.140625 C 250.058594 43.128906 252.414062 44.171875 254.738281 45.269531 C 257.066406 46.371094 259.367188 47.527344 261.636719 48.742188 C 263.90625 49.957031 266.144531 51.222656 268.355469 52.546875 C 270.5625 53.871094 272.738281 55.25 274.878906 56.679688 C 277.019531 58.109375 279.121094 59.589844 281.191406 61.125 C 283.257812 62.660156 285.285156 64.242188 287.277344 65.875 C 289.265625 67.507812 291.214844 69.1875 293.125 70.917969 C 295.03125 72.648438 296.894531 74.421875 298.714844 76.242188 C 300.535156 78.0625 302.3125 79.925781 304.039062 81.835938 C 305.769531 83.742188 307.449219 85.691406 309.082031 87.679688 C 310.714844 89.671875 312.300781 91.699219 313.832031 93.769531 C 315.367188 95.835938 316.847656 97.941406 318.277344 100.082031 C 319.710938 102.222656 321.085938 104.394531 322.410156 106.605469 C 323.734375 108.8125 325 111.050781 326.214844 113.320312 C 327.429688 115.59375 328.585938 117.890625 329.6875 120.21875 C 330.789062 122.546875 331.832031 124.898438 332.816406 127.277344 C 333.800781 129.65625 334.726562 132.058594 335.59375 134.480469 C 336.460938 136.90625 337.269531 139.347656 338.015625 141.8125 C 338.765625 144.277344 339.449219 146.757812 340.074219 149.253906 C 340.703125 151.75 341.265625 154.261719 341.769531 156.789062 C 342.269531 159.3125 342.710938 161.847656 343.085938 164.394531 C 343.464844 166.941406 343.78125 169.496094 344.03125 172.058594 C 344.285156 174.621094 344.476562 177.1875 344.601562 179.757812 C 344.726562 182.328125 344.789062 184.902344 344.789062 187.476562 Z M 344.789062 187.476562 " fill-opacity="1" fill-rule="nonzero"/><path fill="#ffd54f" d="M 344.789062 187.476562 C 344.789062 190.050781 344.726562 192.625 344.601562 195.195312 C 344.476562 197.765625 344.285156 200.332031 344.03125 202.894531 C 343.78125 205.457031 343.464844 208.011719 343.085938 210.558594 C 342.710938 213.105469 342.269531 215.640625 341.769531 218.167969 C 341.265625 220.691406 340.703125 223.203125 340.074219 225.699219 C 339.449219 228.195312 338.765625 230.675781 338.015625 233.140625 C 337.269531 235.605469 336.460938 238.046875 335.59375 240.472656 C 334.726562 242.898438 333.800781 245.296875 332.816406 247.675781 C 331.832031 250.054688 330.789062 252.40625 329.6875 254.734375 C 328.585938 257.0625 327.429688 259.359375 326.214844 261.632812 C 325 263.902344 323.734375 266.140625 322.410156 268.351562 C 321.085938 270.558594 319.710938 272.730469 318.277344 274.871094 C 316.847656 277.011719 315.367188 279.117188 313.832031 281.1875 C 312.300781 283.253906 310.714844 285.28125 309.082031 287.273438 C 307.449219 289.261719 305.769531 291.210938 304.039062 293.117188 C 302.3125 295.027344 300.535156 296.890625 298.714844 298.710938 C 296.894531 300.53125 295.03125 302.304688 293.125 304.035156 C 291.214844 305.765625 289.265625 307.445312 287.277344 309.078125 C 285.285156 310.710938 283.257812 312.292969 281.191406 313.828125 C 279.121094 315.363281 277.019531 316.84375 274.878906 318.273438 C 272.738281 319.703125 270.5625 321.082031 268.355469 322.40625 C 266.144531 323.730469 263.90625 324.996094 261.636719 326.210938 C 259.367188 327.425781 257.066406 328.582031 254.738281 329.683594 C 252.414062 330.78125 250.058594 331.824219 247.679688 332.8125 C 245.300781 333.796875 242.902344 334.722656 240.476562 335.589844 C 238.054688 336.457031 235.609375 337.265625 233.144531 338.011719 C 230.683594 338.757812 228.203125 339.445312 225.703125 340.070312 C 223.207031 340.695312 220.695312 341.261719 218.171875 341.761719 C 215.644531 342.265625 213.109375 342.707031 210.5625 343.082031 C 208.015625 343.460938 205.460938 343.777344 202.898438 344.027344 C 200.339844 344.28125 197.769531 344.46875 195.199219 344.597656 C 192.628906 344.722656 190.054688 344.785156 187.480469 344.785156 C 184.90625 344.785156 182.332031 344.722656 179.761719 344.597656 C 177.191406 344.46875 174.625 344.28125 172.0625 344.027344 C 169.5 343.777344 166.945312 343.460938 164.398438 343.082031 C 161.851562 342.707031 159.316406 342.265625 156.792969 341.761719 C 154.265625 341.261719 151.753906 340.695312 149.257812 340.070312 C 146.761719 339.445312 144.28125 338.757812 141.816406 338.011719 C 139.351562 337.265625 136.910156 336.457031 134.484375 335.589844 C 132.0625 334.722656 129.660156 333.796875 127.28125 332.8125 C 124.902344 331.824219 122.550781 330.78125 120.222656 329.683594 C 117.894531 328.582031 115.597656 327.425781 113.324219 326.210938 C 111.054688 324.996094 108.816406 323.730469 106.609375 322.40625 C 104.398438 321.082031 102.226562 319.703125 100.085938 318.273438 C 97.945312 316.84375 95.839844 315.363281 93.773438 313.828125 C 91.703125 312.292969 89.675781 310.710938 87.683594 309.078125 C 85.695312 307.445312 83.746094 305.765625 81.839844 304.035156 C 79.929688 302.304688 78.066406 300.53125 76.246094 298.710938 C 74.425781 296.890625 72.652344 295.027344 70.921875 293.117188 C 69.195312 291.210938 67.511719 289.261719 65.878906 287.273438 C 64.246094 285.28125 62.664062 283.253906 61.128906 281.1875 C 59.59375 279.117188 58.113281 277.011719 56.683594 274.871094 C 55.253906 272.730469 53.875 270.558594 52.550781 268.351562 C 51.230469 266.140625 49.960938 263.902344 48.746094 261.632812 C 47.535156 259.359375 46.375 257.0625 45.277344 254.734375 C 44.175781 252.40625 43.132812 250.054688 42.144531 247.675781 C 41.160156 245.296875 40.234375 242.898438 39.367188 240.472656 C 38.5 238.046875 37.691406 235.605469 36.945312 233.140625 C 36.199219 230.675781 35.511719 228.195312 34.886719 225.699219 C 34.261719 223.203125 33.695312 220.691406 33.195312 218.167969 C 32.691406 215.640625 32.253906 213.105469 31.875 210.558594 C 31.496094 208.011719 31.183594 205.457031 30.929688 202.894531 C 30.675781 200.332031 30.488281 197.765625 30.363281 195.195312 C 30.234375 192.625 30.171875 190.050781 30.171875 187.476562 C 30.171875 184.902344 30.234375 182.328125 30.363281 179.757812 C 30.488281 177.1875 30.675781 174.621094 30.929688 172.058594 C 31.183594 169.496094 31.496094 166.941406 31.875 164.394531 C 32.253906 161.847656 32.691406 159.3125 33.195312 156.789062 C 33.695312 154.261719 34.261719 151.75 34.886719 149.253906 C 35.511719 146.757812 36.199219 144.277344 36.945312 141.8125 C 37.691406 139.347656 38.5 136.90625 39.367188 134.480469 C 40.234375 132.058594 41.160156 129.65625 42.144531 127.277344 C 43.132812 124.898438 44.175781 122.546875 45.277344 120.21875 C 46.375 117.890625 47.535156 115.59375 48.746094 113.320312 C 49.960938 111.050781 51.230469 108.8125 52.550781 106.605469 C 53.875 104.394531 55.253906 102.222656 56.683594 100.082031 C 58.113281 97.941406 59.59375 95.835938 61.128906 93.769531 C 62.664062 91.699219 64.246094 89.671875 65.878906 87.679688 C 67.511719 85.691406 69.195312 83.742188 70.921875 81.835938 C 72.652344 79.925781 74.425781 78.0625 76.246094 76.242188 C 78.066406 74.421875 79.929688 72.648438 81.839844 70.917969 C 83.746094 69.1875 85.695312 67.507812 87.683594 65.875 C 89.675781 64.242188 91.703125 62.660156 93.773438 61.125 C 95.839844 59.589844 97.945312 58.109375 100.085938 56.679688 C 102.226562 55.25 104.398438 53.871094 106.609375 52.546875 C 108.816406 51.222656 111.054688 49.957031 113.324219 48.742188 C 115.597656 47.527344 117.894531 46.371094 120.222656 45.269531 C 122.550781 44.171875 124.902344 43.128906 127.28125 42.140625 C 129.660156 41.15625 132.0625 40.230469 134.484375 39.363281 C 136.910156 38.496094 139.351562 37.6875 141.816406 36.941406 C 144.28125 36.195312 146.761719 35.507812 149.257812 34.882812 C 151.753906 34.257812 154.265625 33.691406 156.792969 33.191406 C 159.316406 32.6875 161.851562 32.246094 164.398438 31.871094 C 166.945312 31.492188 169.5 31.175781 172.0625 30.925781 C 174.625 30.671875 177.191406 30.484375 179.761719 30.355469 C 182.332031 30.230469 184.90625 30.167969 187.480469 30.167969 C 190.054688 30.167969 192.628906 30.230469 195.199219 30.355469 C 197.769531 30.484375 200.339844 30.671875 202.898438 30.925781 C 205.460938 31.175781 208.015625 31.492188 210.5625 31.871094 C 213.109375 32.246094 215.644531 32.6875 218.171875 33.191406 C 220.695312 33.691406 223.207031 34.257812 225.703125 34.882812 C 228.203125 35.507812 230.683594 36.195312 233.144531 36.941406 C 235.609375 37.6875 238.054688 38.496094 240.476562 39.363281 C 242.902344 40.230469 245.300781 41.15625 247.679688 42.140625 C 250.058594 43.128906 252.414062 44.171875 254.738281 45.269531 C 257.066406 46.371094 259.367188 47.527344 261.636719 48.742188 C 263.90625 49.957031 266.144531 51.222656 268.355469 52.546875 C 270.5625 53.871094 272.738281 55.25 274.878906 56.679688 C 277.019531 58.109375 279.121094 59.589844 281.191406 61.125 C 283.257812 62.660156 285.285156 64.242188 287.277344 65.875 C 289.265625 67.507812 291.214844 69.1875 293.125 70.917969 C 295.03125 72.648438 296.894531 74.421875 298.714844 76.242188 C 300.535156 78.0625 302.3125 79.925781 304.039062 81.835938 C 305.769531 83.742188 307.449219 85.691406 309.082031 87.679688 C 310.714844 89.671875 312.300781 91.699219 313.832031 93.769531 C 315.367188 95.835938 316.847656 97.941406 318.277344 100.082031 C 319.710938 102.222656 321.085938 104.394531 322.410156 106.605469 C 323.734375 108.8125 325 111.050781 326.214844 113.320312 C 327.429688 115.59375 328.585938 117.890625 329.6875 120.21875 C 330.789062 122.546875 331.832031 124.898438 332.816406 127.277344 C 333.800781 129.65625 334.726562 132.058594 335.59375 134.480469 C 336.460938 136.90625 337.269531 139.347656 338.015625 141.8125 C 338.765625 144.277344 339.449219 146.757812 340.074219 149.253906 C 340.703125 151.75 341.265625 154.261719 341.769531 156.789062 C 342.269531 159.3125 342.710938 161.847656 343.085938 164.394531 C 343.464844 166.941406 343.78125 169.496094 344.03125 172.058594 C 344.285156 174.621094 344.476562 177.1875 344.601562 179.757812 C 344.726562 182.328125 344.789062 184.902344 344.789062 187.476562 Z M 344.789062 187.476562 " fill-opacity="1" fill-rule="nonzero"/><path fill="#ffe082" d="M 320.589844 187.476562 C 320.589844 189.65625 320.535156 191.832031 320.429688 194.007812 C 320.320312 196.183594 320.160156 198.355469 319.949219 200.523438 C 319.734375 202.691406 319.46875 204.851562 319.148438 207.007812 C 318.828125 209.164062 318.457031 211.308594 318.03125 213.445312 C 317.605469 215.582031 317.128906 217.707031 316.601562 219.820312 C 316.070312 221.933594 315.488281 224.03125 314.855469 226.117188 C 314.226562 228.199219 313.542969 230.269531 312.808594 232.320312 C 312.074219 234.371094 311.289062 236.402344 310.457031 238.414062 C 309.625 240.425781 308.742188 242.417969 307.808594 244.386719 C 306.878906 246.355469 305.898438 248.300781 304.871094 250.222656 C 303.84375 252.144531 302.769531 254.039062 301.652344 255.90625 C 300.53125 257.777344 299.367188 259.617188 298.15625 261.425781 C 296.945312 263.238281 295.691406 265.019531 294.394531 266.769531 C 293.097656 268.519531 291.757812 270.234375 290.375 271.917969 C 288.992188 273.601562 287.570312 275.253906 286.109375 276.867188 C 284.644531 278.480469 283.144531 280.058594 281.601562 281.597656 C 280.0625 283.136719 278.484375 284.640625 276.871094 286.101562 C 275.257812 287.566406 273.609375 288.988281 271.925781 290.371094 C 270.238281 291.753906 268.523438 293.09375 266.773438 294.390625 C 265.023438 295.6875 263.242188 296.941406 261.433594 298.152344 C 259.621094 299.363281 257.78125 300.527344 255.914062 301.648438 C 254.042969 302.765625 252.148438 303.839844 250.226562 304.867188 C 248.304688 305.894531 246.363281 306.875 244.390625 307.804688 C 242.421875 308.734375 240.433594 309.617188 238.417969 310.453125 C 236.40625 311.285156 234.375 312.070312 232.324219 312.804688 C 230.273438 313.539062 228.203125 314.21875 226.121094 314.851562 C 224.035156 315.484375 221.9375 316.066406 219.824219 316.59375 C 217.710938 317.125 215.585938 317.601562 213.449219 318.027344 C 211.3125 318.453125 209.167969 318.824219 207.011719 319.144531 C 204.855469 319.464844 202.695312 319.730469 200.527344 319.945312 C 198.359375 320.15625 196.1875 320.316406 194.011719 320.425781 C 191.835938 320.53125 189.660156 320.585938 187.480469 320.585938 C 185.304688 320.585938 183.125 320.53125 180.949219 320.425781 C 178.773438 320.316406 176.601562 320.15625 174.433594 319.945312 C 172.265625 319.730469 170.105469 319.464844 167.949219 319.144531 C 165.796875 318.824219 163.648438 318.453125 161.511719 318.027344 C 159.375 317.601562 157.25 317.125 155.136719 316.59375 C 153.027344 316.066406 150.925781 315.484375 148.84375 314.851562 C 146.757812 314.21875 144.691406 313.539062 142.636719 312.804688 C 140.585938 312.070312 138.554688 311.285156 136.542969 310.453125 C 134.53125 309.617188 132.539062 308.734375 130.570312 307.804688 C 128.601562 306.875 126.65625 305.894531 124.734375 304.867188 C 122.8125 303.839844 120.917969 302.765625 119.050781 301.648438 C 117.183594 300.527344 115.339844 299.363281 113.53125 298.152344 C 111.71875 296.941406 109.9375 295.6875 108.1875 294.390625 C 106.4375 293.09375 104.722656 291.753906 103.039062 290.371094 C 101.355469 288.988281 99.707031 287.566406 98.089844 286.101562 C 96.476562 284.640625 94.898438 283.136719 93.359375 281.597656 C 91.820312 280.058594 90.316406 278.480469 88.855469 276.867188 C 87.390625 275.253906 85.96875 273.601562 84.585938 271.917969 C 83.207031 270.234375 81.867188 268.519531 80.566406 266.769531 C 79.269531 265.019531 78.015625 263.238281 76.804688 261.425781 C 75.597656 259.617188 74.429688 257.777344 73.3125 255.90625 C 72.191406 254.039062 71.117188 252.144531 70.089844 250.222656 C 69.0625 248.300781 68.085938 246.355469 67.152344 244.386719 C 66.222656 242.417969 65.339844 240.425781 64.503906 238.414062 C 63.671875 236.402344 62.886719 234.371094 62.15625 232.320312 C 61.421875 230.269531 60.738281 228.199219 60.105469 226.117188 C 59.472656 224.03125 58.890625 221.933594 58.363281 219.820312 C 57.832031 217.707031 57.355469 215.582031 56.929688 213.445312 C 56.507812 211.308594 56.132812 209.164062 55.8125 207.007812 C 55.496094 204.851562 55.226562 202.691406 55.015625 200.523438 C 54.800781 198.355469 54.640625 196.183594 54.535156 194.007812 C 54.425781 191.832031 54.375 189.65625 54.375 187.476562 C 54.375 185.296875 54.425781 183.121094 54.535156 180.945312 C 54.640625 178.769531 54.800781 176.597656 55.015625 174.429688 C 55.226562 172.261719 55.496094 170.101562 55.8125 167.945312 C 56.132812 165.789062 56.507812 163.644531 56.929688 161.507812 C 57.355469 159.371094 57.832031 157.246094 58.363281 155.132812 C 58.890625 153.019531 59.472656 150.921875 60.105469 148.835938 C 60.738281 146.753906 61.421875 144.683594 62.15625 142.632812 C 62.886719 140.582031 63.671875 138.550781 64.503906 136.539062 C 65.339844 134.527344 66.222656 132.535156 67.152344 130.566406 C 68.085938 128.597656 69.0625 126.652344 70.089844 124.730469 C 71.117188 122.808594 72.191406 120.914062 73.3125 119.046875 C 74.429688 117.175781 75.597656 115.335938 76.804688 113.527344 C 78.015625 111.714844 79.269531 109.933594 80.566406 108.183594 C 81.867188 106.433594 83.207031 104.71875 84.585938 103.035156 C 85.96875 101.351562 87.390625 99.699219 88.855469 98.085938 C 90.316406 96.472656 91.820312 94.894531 93.359375 93.355469 C 94.898438 91.816406 96.476562 90.3125 98.089844 88.851562 C 99.707031 87.386719 101.355469 85.964844 103.039062 84.582031 C 104.722656 83.199219 106.4375 81.859375 108.1875 80.5625 C 109.9375 79.265625 111.71875 78.011719 113.53125 76.800781 C 115.339844 75.589844 117.183594 74.425781 119.050781 73.304688 C 120.917969 72.1875 122.8125 71.113281 124.734375 70.085938 C 126.65625 69.058594 128.601562 68.078125 130.570312 67.148438 C 132.539062 66.21875 134.53125 65.335938 136.542969 64.5 C 138.554688 63.667969 140.585938 62.882812 142.636719 62.148438 C 144.691406 61.414062 146.757812 60.734375 148.84375 60.101562 C 150.925781 59.46875 153.027344 58.886719 155.136719 58.359375 C 157.25 57.828125 159.375 57.351562 161.511719 56.925781 C 163.648438 56.5 165.796875 56.128906 167.949219 55.808594 C 170.105469 55.488281 172.265625 55.222656 174.433594 55.011719 C 176.601562 54.796875 178.773438 54.636719 180.949219 54.527344 C 183.125 54.421875 185.304688 54.367188 187.480469 54.367188 C 189.660156 54.367188 191.835938 54.421875 194.011719 54.527344 C 196.1875 54.636719 198.359375 54.796875 200.527344 55.011719 C 202.695312 55.222656 204.855469 55.488281 207.011719 55.808594 C 209.167969 56.128906 211.3125 56.5 213.449219 56.925781 C 215.585938 57.351562 217.710938 57.828125 219.824219 58.359375 C 221.9375 58.886719 224.035156 59.46875 226.121094 60.101562 C 228.203125 60.734375 230.273438 61.414062 232.324219 62.148438 C 234.375 62.882812 236.40625 63.667969 238.417969 64.5 C 240.433594 65.335938 242.421875 66.21875 244.390625 67.148438 C 246.363281 68.078125 248.304688 69.058594 250.226562 70.085938 C 252.148438 71.113281 254.042969 72.1875 255.914062 73.304688 C 257.78125 74.425781 259.621094 75.589844 261.433594 76.800781 C 263.242188 78.011719 265.023438 79.265625 266.773438 80.5625 C 268.523438 81.859375 270.238281 83.199219 271.925781 84.582031 C 273.609375 85.964844 275.257812 87.386719 276.871094 88.851562 C 278.484375 90.3125 280.0625 91.816406 281.601562 93.355469 C 283.144531 94.894531 284.644531 96.472656 286.109375 98.085938 C 287.570312 99.699219 288.992188 101.351562 290.375 103.035156 C 291.757812 104.71875 293.097656 106.433594 294.394531 108.183594 C 295.691406 109.933594 296.945312 111.714844 298.15625 113.527344 C 299.367188 115.335938 300.53125 117.175781 301.652344 119.046875 C 302.769531 120.914062 303.84375 122.808594 304.871094 124.730469 C 305.898438 126.652344 306.878906 128.597656 307.808594 130.566406 C 308.742188 132.535156 309.625 134.527344 310.457031 136.539062 C 311.289062 138.550781 312.074219 140.582031 312.808594 142.632812 C 313.542969 144.683594 314.226562 146.753906 314.855469 148.835938 C 315.488281 150.921875 316.070312 153.019531 316.601562 155.132812 C 317.128906 157.246094 317.605469 159.371094 318.03125 161.507812 C 318.457031 163.644531 318.828125 165.789062 319.148438 167.945312 C 319.46875 170.101562 319.734375 172.261719 319.949219 174.429688 C 320.160156 176.597656 320.320312 178.769531 320.429688 180.945312 C 320.535156 183.121094 320.589844 185.296875 320.589844 187.476562 Z M 320.589844 187.476562 " fill-opacity="1" fill-rule="nonzero"/><g clip-path="url(#f40e89ae2a)"><path fill="#ffb300" d="M 317.359375 186.976562 C 318.460938 188.078125 318.464844 189.878906 317.359375 190.976562 L 188.898438 319.707031 C 187.796875 320.808594 186 320.8125 184.898438 319.707031 L 56.167969 191.246094 C 55.066406 190.144531 55.0625 188.347656 56.167969 187.246094 Z M 317.359375 186.976562 " fill-opacity="1" fill-rule="nonzero"/></g><g clip-path="url(#b95238d1fc)"><path fill="#ffb300" d="M 317.359375 187.984375 C 318.460938 186.882812 318.464844 185.085938 317.359375 183.984375 L 188.898438 55.253906 C 187.796875 54.152344 186 54.148438 184.898438 55.253906 L 56.167969 183.714844 C 55.066406 184.816406 55.0625 186.617188 56.167969 187.714844 Z M 317.359375 187.984375 " fill-opacity="1" fill-rule="nonzero"/></g><g clip-path="url(#872f32cfbd)"><g clip-path="url(#9644fad7ac)"><g clip-path="url(#6055197476)"><path fill="#ffb300" d="M 280.175781 279.46875 C 280.175781 281.023438 278.90625 282.300781 277.34375 282.296875 L 95.484375 282.484375 C 93.925781 282.484375 92.652344 281.21875 92.65625 279.65625 L 92.464844 97.796875 C 92.464844 96.238281 93.734375 94.960938 95.292969 94.964844 Z M 280.175781 279.46875 " fill-opacity="1" fill-rule="nonzero"/></g></g></g><g clip-path="url(#9cee3527d8)"><g clip-path="url(#7d474942a2)"><g clip-path="url(#5fba362f5c)"><path fill="#ffb300" d="M 279.460938 280.179688 C 281.019531 280.179688 282.296875 278.910156 282.292969 277.351562 L 282.480469 95.488281 C 282.480469 93.933594 281.210938 92.65625 279.652344 92.660156 L 97.789062 92.46875 C 96.234375 92.46875 94.957031 93.738281 94.960938 95.300781 Z M 279.460938 280.179688 " fill-opacity="1" fill-rule="nonzero"/></g></g></g><path fill="#000000" d="M 158.320312 145.160156 C 157.761719 148.132812 158.121094 151.460938 158.160156 154.515625 C 158.199219 157.722656 158.320312 160.855469 158.597656 164.023438 C 158.875 167.078125 164.089844 167.511719 164.726562 164.460938 C 165.480469 161.011719 165.839844 157.804688 165.757812 154.316406 C 165.640625 150.90625 165.519531 147.222656 164.207031 144.050781 C 163.691406 142.824219 162.097656 142.148438 160.867188 142.386719 C 159.394531 142.664062 158.597656 143.8125 158.320312 145.160156 Z M 158.320312 145.160156 " fill-opacity="1" fill-rule="nonzero"/><path fill="#000000" d="M 201.570312 144.132812 C 200.378906 146.507812 200.855469 150.035156 200.972656 152.652344 C 201.09375 155.703125 201.453125 158.515625 202.246094 161.449219 C 203.320312 165.453125 208.414062 164.859375 209.210938 161.054688 C 209.886719 157.882812 209.925781 154.988281 209.570312 151.78125 C 209.25 148.886719 208.972656 145.4375 207.101562 143.0625 C 205.429688 140.960938 202.566406 142.109375 201.570312 144.132812 Z M 201.570312 144.132812 " fill-opacity="1" fill-rule="nonzero"/><g clip-path="url(#58fb6dbea3)"><path fill="#000000" d="M 128.316406 194.421875 C 128.195312 200.40625 131.222656 206.03125 134.5625 210.828125 C 137.867188 215.542969 142.085938 219.664062 146.820312 222.953125 C 155.851562 229.214844 166.914062 232.78125 177.894531 233.257812 C 189.039062 233.734375 200.457031 231.433594 210.246094 226.046875 C 219.996094 220.695312 228.230469 212.808594 234.238281 203.457031 C 237.542969 198.304688 240.207031 192.675781 242.078125 186.851562 C 243.074219 183.839844 243.867188 180.710938 244.386719 177.578125 C 244.863281 174.488281 245.5 170.960938 244.503906 167.949219 C 243.550781 165.09375 240.050781 164.699219 238.695312 167.511719 C 237.621094 169.769531 237.503906 172.269531 236.984375 174.726562 C 236.46875 177.140625 235.910156 179.558594 235.195312 181.9375 C 233.839844 186.496094 232.011719 190.933594 229.664062 195.054688 C 224.929688 203.417969 218.402344 210.90625 210.285156 216.21875 C 194.210938 226.679688 172.484375 228.105469 155.292969 219.308594 C 150.28125 216.730469 145.625 213.285156 141.804688 209.203125 C 137.46875 204.566406 135 199.175781 132.015625 193.667969 C 131.140625 192.121094 128.355469 192.398438 128.316406 194.421875 Z M 128.316406 194.421875 " fill-opacity="1" fill-rule="nonzero"/></g></svg>