<svg xmlns="http://www.w3.org/2000/svg" xmlns:xlink="http://www.w3.org/1999/xlink" width="1080" zoomAndPan="magnify" viewBox="0 0 810 809.999993" height="1080" preserveAspectRatio="xMidYMid meet" version="1.0"><path fill="#ffffff" d="M 405 0 C 411.628906 0 418.253906 0.164062 424.871094 0.488281 C 431.492188 0.8125 438.101562 1.300781 444.695312 1.949219 C 451.292969 2.601562 457.871094 3.410156 464.425781 4.382812 C 470.980469 5.355469 477.511719 6.488281 484.011719 7.78125 C 490.511719 9.074219 496.976562 10.527344 503.40625 12.136719 C 509.835938 13.746094 516.222656 15.515625 522.566406 17.4375 C 528.90625 19.363281 535.199219 21.441406 541.441406 23.675781 C 547.679688 25.90625 553.863281 28.292969 559.988281 30.828125 C 566.109375 33.367188 572.167969 36.050781 578.160156 38.882812 C 584.152344 41.71875 590.070312 44.699219 595.914062 47.820312 C 601.761719 50.945312 607.527344 54.210938 613.210938 57.621094 C 618.898438 61.027344 624.496094 64.574219 630.007812 68.253906 C 635.515625 71.9375 640.933594 75.753906 646.257812 79.699219 C 651.582031 83.648438 656.804688 87.726562 661.929688 91.929688 C 667.054688 96.136719 672.070312 100.464844 676.980469 104.914062 C 681.890625 109.367188 686.691406 113.933594 691.378906 118.621094 C 696.066406 123.308594 700.632812 128.109375 705.085938 133.019531 C 709.535156 137.929688 713.863281 142.945312 718.070312 148.070312 C 722.273438 153.195312 726.351562 158.417969 730.300781 163.742188 C 734.246094 169.066406 738.0625 174.484375 741.746094 179.992188 C 745.425781 185.503906 748.972656 191.101562 752.378906 196.789062 C 755.789062 202.472656 759.054688 208.238281 762.179688 214.085938 C 765.300781 219.929688 768.28125 225.847656 771.117188 231.839844 C 773.949219 237.832031 776.632812 243.890625 779.171875 250.011719 C 781.707031 256.136719 784.09375 262.320312 786.324219 268.558594 C 788.558594 274.800781 790.636719 281.09375 792.5625 287.433594 C 794.484375 293.777344 796.253906 300.164062 797.863281 306.59375 C 799.472656 313.023438 800.925781 319.488281 802.21875 325.988281 C 803.511719 332.488281 804.644531 339.019531 805.617188 345.574219 C 806.589844 352.128906 807.398438 358.707031 808.050781 365.304688 C 808.699219 371.898438 809.1875 378.507812 809.511719 385.128906 C 809.835938 391.746094 810 398.371094 810 405 C 810 411.628906 809.835938 418.253906 809.511719 424.871094 C 809.1875 431.492188 808.699219 438.101562 808.050781 444.695312 C 807.398438 451.292969 806.589844 457.871094 805.617188 464.425781 C 804.644531 470.980469 803.511719 477.511719 802.21875 484.011719 C 800.925781 490.511719 799.472656 496.976562 797.863281 503.40625 C 796.253906 509.835938 794.484375 516.222656 792.5625 522.566406 C 790.636719 528.90625 788.558594 535.199219 786.324219 541.441406 C 784.09375 547.679688 781.707031 553.863281 779.171875 559.988281 C 776.632812 566.109375 773.949219 572.167969 771.117188 578.160156 C 768.28125 584.152344 765.300781 590.070312 762.179688 595.914062 C 759.054688 601.761719 755.789062 607.527344 752.378906 613.210938 C 748.972656 618.898438 745.425781 624.496094 741.746094 630.003906 C 738.0625 635.515625 734.246094 640.933594 730.300781 646.257812 C 726.351562 651.582031 722.273438 656.804688 718.070312 661.929688 C 713.863281 667.054688 709.535156 672.070312 705.085938 676.980469 C 700.632812 681.890625 696.066406 686.691406 691.378906 691.378906 C 686.691406 696.066406 681.890625 700.632812 676.980469 705.085938 C 672.070312 709.535156 667.054688 713.863281 661.929688 718.070312 C 656.804688 722.273438 651.582031 726.351562 646.257812 730.300781 C 640.933594 734.246094 635.515625 738.0625 630.007812 741.746094 C 624.496094 745.425781 618.898438 748.972656 613.210938 752.378906 C 607.527344 755.789062 601.761719 759.054688 595.914062 762.179688 C 590.070312 765.300781 584.152344 768.28125 578.160156 771.117188 C 572.167969 773.949219 566.109375 776.632812 559.988281 779.171875 C 553.863281 781.707031 547.679688 784.09375 541.441406 786.324219 C 535.199219 788.558594 528.90625 790.636719 522.566406 792.5625 C 516.222656 794.484375 509.835938 796.253906 503.40625 797.863281 C 496.976562 799.472656 490.511719 800.925781 484.011719 802.21875 C 477.511719 803.511719 470.980469 804.644531 464.425781 805.617188 C 457.871094 806.589844 451.292969 807.398438 444.695312 808.050781 C 438.101562 808.699219 431.492188 809.1875 424.871094 809.511719 C 418.253906 809.835938 411.628906 810 405 810 C 398.371094 810 391.746094 809.835938 385.128906 809.511719 C 378.507812 809.1875 371.898438 808.699219 365.304688 808.050781 C 358.707031 807.398438 352.128906 806.589844 345.574219 805.617188 C 339.019531 804.644531 332.488281 803.511719 325.988281 802.21875 C 319.488281 800.925781 313.023438 799.472656 306.59375 797.863281 C 300.164062 796.253906 293.777344 794.484375 287.433594 792.5625 C 281.09375 790.636719 274.800781 788.558594 268.558594 786.324219 C 262.320312 784.09375 256.136719 781.707031 250.011719 779.171875 C 243.890625 776.632812 237.832031 773.949219 231.839844 771.117188 C 225.847656 768.28125 219.929688 765.300781 214.085938 762.179688 C 208.238281 759.054688 202.472656 755.789062 196.789062 752.378906 C 191.101562 748.972656 185.503906 745.425781 179.996094 741.746094 C 174.484375 738.0625 169.066406 734.246094 163.742188 730.300781 C 158.417969 726.351562 153.195312 722.273438 148.070312 718.070312 C 142.945312 713.863281 137.929688 709.535156 133.019531 705.085938 C 128.109375 700.632812 123.308594 696.066406 118.621094 691.378906 C 113.933594 686.691406 109.367188 681.890625 104.914062 676.980469 C 100.464844 672.070312 96.136719 667.054688 91.929688 661.929688 C 87.726562 656.804688 83.648438 651.582031 79.699219 646.257812 C 75.753906 640.933594 71.9375 635.515625 68.253906 630.003906 C 64.574219 624.496094 61.027344 618.898438 57.621094 613.210938 C 54.210938 607.527344 50.945312 601.761719 47.820312 595.914062 C 44.699219 590.070312 41.71875 584.152344 38.882812 578.160156 C 36.050781 572.167969 33.367188 566.109375 30.828125 559.988281 C 28.292969 553.863281 25.90625 547.679688 23.675781 541.441406 C 21.441406 535.199219 19.363281 528.90625 17.4375 522.566406 C 15.515625 516.222656 13.746094 509.835938 12.136719 503.40625 C 10.527344 496.976562 9.074219 490.511719 7.78125 484.011719 C 6.488281 477.511719 5.355469 470.980469 4.382812 464.425781 C 3.410156 457.871094 2.601562 451.292969 1.949219 444.695312 C 1.300781 438.101562 0.8125 431.492188 0.488281 424.871094 C 0.164062 418.253906 0 411.628906 0 405 C 0 398.371094 0.164062 391.746094 0.488281 385.128906 C 0.8125 378.507812 1.300781 371.898438 1.949219 365.304688 C 2.601562 358.707031 3.410156 352.128906 4.382812 345.574219 C 5.355469 339.019531 6.488281 332.488281 7.78125 325.988281 C 9.074219 319.488281 10.527344 313.023438 12.136719 306.59375 C 13.746094 300.164062 15.515625 293.777344 17.4375 287.433594 C 19.363281 281.09375 21.441406 274.800781 23.675781 268.558594 C 25.90625 262.320312 28.292969 256.136719 30.828125 250.011719 C 33.367188 243.890625 36.050781 237.832031 38.882812 231.839844 C 41.71875 225.847656 44.699219 219.929688 47.820312 214.085938 C 50.945312 208.238281 54.210938 202.472656 57.621094 196.789062 C 61.027344 191.101562 64.574219 185.503906 68.253906 179.992188 C 71.9375 174.484375 75.753906 169.066406 79.699219 163.742188 C 83.648438 158.417969 87.726562 153.195312 91.929688 148.070312 C 96.136719 142.945312 100.464844 137.929688 104.914062 133.019531 C 109.367188 128.109375 113.933594 123.308594 118.621094 118.621094 C 123.308594 113.933594 128.109375 109.367188 133.019531 104.914062 C 137.929688 100.464844 142.945312 96.136719 148.070312 91.929688 C 153.195312 87.726562 158.417969 83.648438 163.742188 79.699219 C 169.066406 75.753906 174.484375 71.9375 179.996094 68.253906 C 185.503906 64.574219 191.101562 61.027344 196.789062 57.621094 C 202.472656 54.210938 208.238281 50.945312 214.085938 47.820312 C 219.929688 44.699219 225.847656 41.71875 231.839844 38.882812 C 237.832031 36.050781 243.890625 33.367188 250.011719 30.828125 C 256.136719 28.292969 262.320312 25.90625 268.558594 23.675781 C 274.800781 21.441406 281.09375 19.363281 287.433594 17.4375 C 293.777344 15.515625 300.164062 13.746094 306.59375 12.136719 C 313.023438 10.527344 319.488281 9.074219 325.988281 7.78125 C 332.488281 6.488281 339.019531 5.355469 345.574219 4.382812 C 352.128906 3.410156 358.707031 2.601562 365.304688 1.949219 C 371.898438 1.300781 378.507812 0.8125 385.128906 0.488281 C 391.746094 0.164062 398.371094 0 405 0 Z M 173.746094 433.753906 L 335.746094 595.753906 C 336.683594 596.703125 337.667969 597.601562 338.695312 598.449219 C 339.722656 599.300781 340.789062 600.097656 341.894531 600.839844 C 343.003906 601.585938 344.144531 602.273438 345.316406 602.902344 C 346.492188 603.535156 347.695312 604.109375 348.925781 604.621094 C 350.15625 605.132812 351.410156 605.582031 352.683594 605.972656 C 353.960938 606.363281 355.25 606.6875 356.558594 606.949219 C 357.867188 607.210938 359.183594 607.40625 360.507812 607.539062 C 361.835938 607.667969 363.167969 607.734375 364.5 607.734375 C 365.832031 607.734375 367.164062 607.667969 368.492188 607.539062 C 369.816406 607.40625 371.132812 607.210938 372.441406 606.949219 C 373.75 606.6875 375.039062 606.363281 376.316406 605.972656 C 377.589844 605.582031 378.84375 605.132812 380.074219 604.621094 C 381.304688 604.109375 382.507812 603.535156 383.683594 602.902344 C 384.855469 602.273438 385.996094 601.585938 387.105469 600.839844 C 388.210938 600.097656 389.277344 599.300781 390.304688 598.449219 C 391.332031 597.601562 392.316406 596.703125 393.253906 595.753906 C 394.203125 594.816406 395.101562 593.832031 395.949219 592.804688 C 396.800781 591.777344 397.597656 590.710938 398.339844 589.605469 C 399.085938 588.496094 399.773438 587.355469 400.402344 586.183594 C 401.035156 585.007812 401.605469 583.804688 402.121094 582.574219 C 402.632812 581.34375 403.082031 580.089844 403.472656 578.816406 C 403.863281 577.539062 404.1875 576.25 404.449219 574.941406 C 404.710938 573.632812 404.90625 572.316406 405.039062 570.992188 C 405.167969 569.664062 405.234375 568.332031 405.234375 567 C 405.234375 565.667969 405.167969 564.335938 405.039062 563.007812 C 404.90625 561.683594 404.710938 560.367188 404.449219 559.058594 C 404.1875 557.75 403.863281 556.460938 403.472656 555.183594 C 403.082031 553.910156 402.632812 552.65625 402.121094 551.425781 C 401.605469 550.195312 401.035156 548.992188 400.402344 547.816406 C 399.773438 546.644531 399.085938 545.503906 398.339844 544.394531 C 397.597656 543.289062 396.800781 542.222656 395.949219 541.195312 C 395.101562 540.167969 394.203125 539.183594 393.253906 538.246094 L 300.105469 445.5 L 607.5 445.5 C 608.828125 445.5 610.148438 445.433594 611.46875 445.304688 C 612.789062 445.175781 614.101562 444.980469 615.402344 444.722656 C 616.703125 444.464844 617.988281 444.140625 619.257812 443.757812 C 620.527344 443.371094 621.773438 442.925781 623 442.417969 C 624.222656 441.910156 625.421875 441.34375 626.589844 440.71875 C 627.761719 440.09375 628.898438 439.410156 630 438.675781 C 631.101562 437.9375 632.167969 437.148438 633.191406 436.308594 C 634.21875 435.464844 635.199219 434.574219 636.136719 433.636719 C 637.074219 432.699219 637.964844 431.71875 638.808594 430.691406 C 639.648438 429.667969 640.4375 428.601562 641.175781 427.5 C 641.910156 426.398438 642.59375 425.261719 643.21875 424.089844 C 643.84375 422.921875 644.410156 421.722656 644.917969 420.5 C 645.425781 419.273438 645.871094 418.027344 646.257812 416.757812 C 646.640625 415.488281 646.964844 414.203125 647.222656 412.902344 C 647.480469 411.601562 647.675781 410.289062 647.804688 408.96875 C 647.933594 407.648438 648 406.328125 648 405 C 648 403.671875 647.933594 402.351562 647.804688 401.03125 C 647.675781 399.710938 647.480469 398.398438 647.222656 397.097656 C 646.964844 395.796875 646.640625 394.511719 646.257812 393.242188 C 645.871094 391.972656 645.425781 390.726562 644.917969 389.5 C 644.410156 388.277344 643.84375 387.078125 643.21875 385.910156 C 642.59375 384.738281 641.910156 383.601562 641.175781 382.5 C 640.4375 381.398438 639.648438 380.332031 638.808594 379.308594 C 637.964844 378.28125 637.074219 377.300781 636.136719 376.363281 C 635.199219 375.425781 634.21875 374.535156 633.191406 373.691406 C 632.167969 372.851562 631.101562 372.0625 630 371.324219 C 628.898438 370.589844 627.761719 369.90625 626.589844 369.28125 C 625.421875 368.65625 624.222656 368.089844 623 367.582031 C 621.773438 367.074219 620.527344 366.628906 619.257812 366.242188 C 617.988281 365.859375 616.703125 365.535156 615.402344 365.277344 C 614.101562 365.019531 612.789062 364.824219 611.46875 364.695312 C 610.148438 364.566406 608.828125 364.5 607.5 364.5 L 300.105469 364.5 L 393.253906 271.753906 C 394.195312 270.8125 395.089844 269.828125 395.933594 268.796875 C 396.78125 267.769531 397.574219 266.699219 398.3125 265.59375 C 399.050781 264.484375 399.734375 263.34375 400.363281 262.167969 C 400.992188 260.996094 401.558594 259.792969 402.070312 258.5625 C 402.578125 257.332031 403.027344 256.078125 403.414062 254.804688 C 403.800781 253.53125 404.125 252.238281 404.382812 250.933594 C 404.644531 249.628906 404.839844 248.3125 404.96875 246.984375 C 405.101562 245.660156 405.164062 244.332031 405.164062 243 C 405.164062 241.667969 405.101562 240.339844 404.96875 239.015625 C 404.839844 237.6875 404.644531 236.371094 404.382812 235.066406 C 404.125 233.761719 403.800781 232.46875 403.414062 231.195312 C 403.027344 229.921875 402.578125 228.667969 402.070312 227.4375 C 401.558594 226.207031 400.992188 225.003906 400.363281 223.832031 C 399.734375 222.65625 399.050781 221.515625 398.3125 220.40625 C 397.574219 219.300781 396.78125 218.230469 395.933594 217.203125 C 395.089844 216.171875 394.195312 215.1875 393.253906 214.246094 C 392.3125 213.304688 391.328125 212.410156 390.296875 211.566406 C 389.269531 210.71875 388.199219 209.925781 387.09375 209.1875 C 385.984375 208.449219 384.84375 207.765625 383.667969 207.136719 C 382.496094 206.507812 381.292969 205.941406 380.0625 205.429688 C 378.832031 204.921875 377.578125 204.472656 376.304688 204.085938 C 375.03125 203.699219 373.738281 203.375 372.433594 203.117188 C 371.128906 202.855469 369.8125 202.660156 368.484375 202.53125 C 367.160156 202.398438 365.832031 202.335938 364.5 202.335938 C 363.167969 202.335938 361.839844 202.398438 360.515625 202.53125 C 359.1875 202.660156 357.871094 202.855469 356.566406 203.117188 C 355.261719 203.375 353.96875 203.699219 352.695312 204.085938 C 351.421875 204.472656 350.167969 204.921875 348.9375 205.429688 C 347.707031 205.941406 346.503906 206.507812 345.332031 207.136719 C 344.15625 207.765625 343.015625 208.449219 341.90625 209.1875 C 340.800781 209.925781 339.730469 210.71875 338.703125 211.566406 C 337.671875 212.410156 336.6875 213.304688 335.746094 214.246094 L 173.746094 376.246094 C 170.023438 380.132812 167.1875 384.589844 165.238281 389.609375 C 164.238281 392.050781 163.480469 394.566406 162.96875 397.15625 C 162.457031 399.746094 162.203125 402.359375 162.203125 405 C 162.203125 407.640625 162.457031 410.253906 162.96875 412.84375 C 163.480469 415.433594 164.238281 417.949219 165.238281 420.390625 C 167.1875 425.410156 170.023438 429.867188 173.746094 433.753906 Z M 173.746094 433.753906 " fill-opacity="1" fill-rule="nonzero"/></svg>