<svg xmlns="http://www.w3.org/2000/svg" xmlns:xlink="http://www.w3.org/1999/xlink" width="1080" zoomAndPan="magnify" viewBox="0 0 810 809.999993" height="1080" preserveAspectRatio="xMidYMid meet" version="1.0"><path fill="#ffffff" d="M 405 0 C 398.371094 0 391.746094 0.164062 385.128906 0.488281 C 378.507812 0.8125 371.898438 1.300781 365.304688 1.949219 C 358.707031 2.601562 352.128906 3.410156 345.574219 4.382812 C 339.019531 5.355469 332.488281 6.488281 325.988281 7.78125 C 319.488281 9.074219 313.023438 10.527344 306.59375 12.136719 C 300.164062 13.746094 293.777344 15.515625 287.433594 17.4375 C 281.09375 19.363281 274.800781 21.441406 268.558594 23.675781 C 262.320312 25.90625 256.136719 28.292969 250.011719 30.828125 C 243.890625 33.367188 237.832031 36.050781 231.839844 38.882812 C 225.847656 41.71875 219.929688 44.699219 214.085938 47.820312 C 208.238281 50.945312 202.472656 54.210938 196.789062 57.621094 C 191.101562 61.027344 185.503906 64.574219 179.992188 68.253906 C 174.484375 71.9375 169.066406 75.753906 163.742188 79.699219 C 158.417969 83.648438 153.195312 87.726562 148.070312 91.929688 C 142.945312 96.136719 137.929688 100.464844 133.019531 104.914062 C 128.109375 109.367188 123.308594 113.933594 118.621094 118.621094 C 113.933594 123.308594 109.367188 128.109375 104.914062 133.019531 C 100.464844 137.929688 96.136719 142.945312 91.929688 148.070312 C 87.726562 153.195312 83.648438 158.417969 79.699219 163.742188 C 75.753906 169.066406 71.9375 174.484375 68.253906 179.992188 C 64.574219 185.503906 61.027344 191.101562 57.621094 196.789062 C 54.210938 202.472656 50.945312 208.238281 47.820312 214.085938 C 44.699219 219.929688 41.71875 225.847656 38.882812 231.839844 C 36.050781 237.832031 33.367188 243.890625 30.828125 250.011719 C 28.292969 256.136719 25.90625 262.320312 23.675781 268.558594 C 21.441406 274.800781 19.363281 281.09375 17.4375 287.433594 C 15.515625 293.777344 13.746094 300.164062 12.136719 306.59375 C 10.527344 313.023438 9.074219 319.488281 7.78125 325.988281 C 6.488281 332.488281 5.355469 339.019531 4.382812 345.574219 C 3.410156 352.128906 2.601562 358.707031 1.949219 365.304688 C 1.300781 371.898438 0.8125 378.507812 0.488281 385.128906 C 0.164062 391.746094 0 398.371094 0 405 C 0 411.628906 0.164062 418.253906 0.488281 424.871094 C 0.8125 431.492188 1.300781 438.101562 1.949219 444.695312 C 2.601562 451.292969 3.410156 457.871094 4.382812 464.425781 C 5.355469 470.980469 6.488281 477.511719 7.78125 484.011719 C 9.074219 490.511719 10.527344 496.976562 12.136719 503.40625 C 13.746094 509.835938 15.515625 516.222656 17.4375 522.566406 C 19.363281 528.90625 21.441406 535.199219 23.675781 541.441406 C 25.90625 547.679688 28.292969 553.863281 30.828125 559.988281 C 33.367188 566.109375 36.050781 572.167969 38.882812 578.160156 C 41.71875 584.152344 44.699219 590.070312 47.820312 595.914062 C 50.945312 601.761719 54.210938 607.527344 57.621094 613.210938 C 61.027344 618.898438 64.574219 624.496094 68.253906 630.003906 C 71.9375 635.515625 75.753906 640.933594 79.699219 646.257812 C 83.648438 651.582031 87.726562 656.804688 91.929688 661.929688 C 96.136719 667.054688 100.464844 672.070312 104.914062 676.980469 C 109.367188 681.890625 113.933594 686.691406 118.621094 691.378906 C 123.308594 696.066406 128.109375 700.632812 133.019531 705.085938 C 137.929688 709.535156 142.945312 713.863281 148.070312 718.070312 C 153.195312 722.273438 158.417969 726.351562 163.742188 730.300781 C 169.066406 734.246094 174.484375 738.0625 179.992188 741.746094 C 185.503906 745.425781 191.101562 748.972656 196.789062 752.378906 C 202.472656 755.789062 208.238281 759.054688 214.085938 762.179688 C 219.929688 765.300781 225.847656 768.28125 231.839844 771.117188 C 237.832031 773.949219 243.890625 776.632812 250.011719 779.171875 C 256.136719 781.707031 262.320312 784.09375 268.558594 786.324219 C 274.800781 788.558594 281.09375 790.636719 287.433594 792.5625 C 293.777344 794.484375 300.164062 796.253906 306.59375 797.863281 C 313.023438 799.472656 319.488281 800.925781 325.988281 802.21875 C 332.488281 803.511719 339.019531 804.644531 345.574219 805.617188 C 352.128906 806.589844 358.707031 807.398438 365.304688 808.050781 C 371.898438 808.699219 378.507812 809.1875 385.128906 809.511719 C 391.746094 809.835938 398.371094 810 405 810 C 411.628906 810 418.253906 809.835938 424.871094 809.511719 C 431.492188 809.1875 438.101562 808.699219 444.695312 808.050781 C 451.292969 807.398438 457.871094 806.589844 464.425781 805.617188 C 470.980469 804.644531 477.511719 803.511719 484.011719 802.21875 C 490.511719 800.925781 496.976562 799.472656 503.40625 797.863281 C 509.835938 796.253906 516.222656 794.484375 522.566406 792.5625 C 528.90625 790.636719 535.199219 788.558594 541.441406 786.324219 C 547.679688 784.09375 553.863281 781.707031 559.988281 779.171875 C 566.109375 776.632812 572.167969 773.949219 578.160156 771.117188 C 584.152344 768.28125 590.070312 765.300781 595.914062 762.179688 C 601.761719 759.054688 607.527344 755.789062 613.210938 752.378906 C 618.898438 748.972656 624.496094 745.425781 630.003906 741.746094 C 635.515625 738.0625 640.933594 734.246094 646.257812 730.300781 C 651.582031 726.351562 656.804688 722.273438 661.929688 718.070312 C 667.054688 713.863281 672.070312 709.535156 676.980469 705.085938 C 681.890625 700.632812 686.691406 696.066406 691.378906 691.378906 C 696.066406 686.691406 700.632812 681.890625 705.085938 676.980469 C 709.535156 672.070312 713.863281 667.054688 718.070312 661.929688 C 722.273438 656.804688 726.351562 651.582031 730.300781 646.257812 C 734.246094 640.933594 738.0625 635.515625 741.746094 630.003906 C 745.425781 624.496094 748.972656 618.898438 752.378906 613.210938 C 755.789062 607.527344 759.054688 601.761719 762.179688 595.914062 C 765.300781 590.070312 768.28125 584.152344 771.117188 578.160156 C 773.949219 572.167969 776.632812 566.109375 779.171875 559.988281 C 781.707031 553.863281 784.09375 547.679688 786.324219 541.441406 C 788.558594 535.199219 790.636719 528.90625 792.5625 522.566406 C 794.484375 516.222656 796.253906 509.835938 797.863281 503.40625 C 799.472656 496.976562 800.925781 490.511719 802.21875 484.011719 C 803.511719 477.511719 804.644531 470.980469 805.617188 464.425781 C 806.589844 457.871094 807.398438 451.292969 808.050781 444.695312 C 808.699219 438.101562 809.1875 431.492188 809.511719 424.871094 C 809.835938 418.253906 810 411.628906 810 405 C 810 398.371094 809.835938 391.746094 809.511719 385.128906 C 809.1875 378.507812 808.699219 371.898438 808.050781 365.304688 C 807.398438 358.707031 806.589844 352.128906 805.617188 345.574219 C 804.644531 339.019531 803.511719 332.488281 802.21875 325.988281 C 800.925781 319.488281 799.472656 313.023438 797.863281 306.59375 C 796.253906 300.164062 794.484375 293.777344 792.5625 287.433594 C 790.636719 281.09375 788.558594 274.800781 786.324219 268.558594 C 784.09375 262.320312 781.707031 256.136719 779.171875 250.011719 C 776.632812 243.890625 773.949219 237.832031 771.117188 231.839844 C 768.28125 225.847656 765.300781 219.929688 762.179688 214.085938 C 759.054688 208.238281 755.789062 202.472656 752.378906 196.789062 C 748.972656 191.101562 745.425781 185.503906 741.746094 179.992188 C 738.0625 174.484375 734.246094 169.066406 730.300781 163.742188 C 726.351562 158.417969 722.273438 153.195312 718.070312 148.070312 C 713.863281 142.945312 709.535156 137.929688 705.085938 133.019531 C 700.632812 128.109375 696.066406 123.308594 691.378906 118.621094 C 686.691406 113.933594 681.890625 109.367188 676.980469 104.914062 C 672.070312 100.464844 667.054688 96.136719 661.929688 91.929688 C 656.804688 87.726562 651.582031 83.648438 646.257812 79.699219 C 640.933594 75.753906 635.515625 71.9375 630.003906 68.253906 C 624.496094 64.574219 618.898438 61.027344 613.210938 57.621094 C 607.527344 54.210938 601.761719 50.945312 595.914062 47.820312 C 590.070312 44.699219 584.152344 41.71875 578.160156 38.882812 C 572.167969 36.050781 566.109375 33.367188 559.988281 30.828125 C 553.863281 28.292969 547.679688 25.90625 541.441406 23.675781 C 535.199219 21.441406 528.90625 19.363281 522.566406 17.4375 C 516.222656 15.515625 509.835938 13.746094 503.40625 12.136719 C 496.976562 10.527344 490.511719 9.074219 484.011719 7.78125 C 477.511719 6.488281 470.980469 5.355469 464.425781 4.382812 C 457.871094 3.410156 451.292969 2.601562 444.695312 1.949219 C 438.101562 1.300781 431.492188 0.8125 424.871094 0.488281 C 418.253906 0.164062 411.628906 0 405 0 Z M 636.253906 433.753906 L 474.253906 595.753906 C 473.316406 596.703125 472.332031 597.601562 471.304688 598.449219 C 470.277344 599.300781 469.210938 600.097656 468.105469 600.839844 C 466.996094 601.585938 465.855469 602.273438 464.683594 602.902344 C 463.507812 603.535156 462.304688 604.109375 461.074219 604.621094 C 459.84375 605.132812 458.589844 605.582031 457.316406 605.972656 C 456.039062 606.363281 454.75 606.6875 453.441406 606.949219 C 452.132812 607.210938 450.816406 607.40625 449.492188 607.539062 C 448.164062 607.667969 446.832031 607.734375 445.5 607.734375 C 444.167969 607.734375 442.835938 607.667969 441.507812 607.539062 C 440.183594 607.40625 438.867188 607.210938 437.558594 606.949219 C 436.25 606.6875 434.960938 606.363281 433.683594 605.972656 C 432.410156 605.582031 431.15625 605.132812 429.925781 604.621094 C 428.695312 604.109375 427.492188 603.535156 426.316406 602.902344 C 425.144531 602.273438 424.003906 601.585938 422.894531 600.839844 C 421.789062 600.097656 420.722656 599.300781 419.695312 598.449219 C 418.667969 597.601562 417.683594 596.703125 416.746094 595.753906 C 415.796875 594.816406 414.898438 593.832031 414.050781 592.804688 C 413.199219 591.777344 412.402344 590.710938 411.660156 589.605469 C 410.914062 588.496094 410.226562 587.355469 409.597656 586.183594 C 408.964844 585.007812 408.394531 583.804688 407.878906 582.574219 C 407.367188 581.34375 406.917969 580.089844 406.527344 578.816406 C 406.136719 577.539062 405.8125 576.25 405.550781 574.941406 C 405.289062 573.632812 405.09375 572.316406 404.960938 570.992188 C 404.832031 569.664062 404.765625 568.332031 404.765625 567 C 404.765625 565.667969 404.832031 564.335938 404.960938 563.007812 C 405.09375 561.683594 405.289062 560.367188 405.550781 559.058594 C 405.8125 557.75 406.136719 556.460938 406.527344 555.183594 C 406.917969 553.910156 407.367188 552.65625 407.878906 551.425781 C 408.394531 550.195312 408.964844 548.992188 409.597656 547.816406 C 410.226562 546.644531 410.914062 545.503906 411.660156 544.394531 C 412.402344 543.289062 413.199219 542.222656 414.050781 541.195312 C 414.898438 540.167969 415.796875 539.183594 416.746094 538.246094 L 509.894531 445.5 L 202.5 445.5 C 201.171875 445.5 199.851562 445.433594 198.53125 445.304688 C 197.210938 445.175781 195.898438 444.980469 194.597656 444.722656 C 193.296875 444.464844 192.011719 444.140625 190.742188 443.757812 C 189.472656 443.371094 188.226562 442.925781 187 442.417969 C 185.777344 441.910156 184.578125 441.34375 183.410156 440.71875 C 182.238281 440.09375 181.101562 439.410156 180 438.675781 C 178.898438 437.9375 177.832031 437.148438 176.808594 436.308594 C 175.78125 435.464844 174.800781 434.574219 173.863281 433.636719 C 172.925781 432.699219 172.035156 431.71875 171.191406 430.691406 C 170.351562 429.667969 169.5625 428.601562 168.824219 427.5 C 168.089844 426.398438 167.40625 425.261719 166.78125 424.089844 C 166.15625 422.921875 165.589844 421.722656 165.082031 420.5 C 164.574219 419.273438 164.128906 418.027344 163.742188 416.757812 C 163.359375 415.488281 163.035156 414.203125 162.777344 412.902344 C 162.519531 411.601562 162.324219 410.289062 162.195312 408.96875 C 162.066406 407.648438 162 406.328125 162 405 C 162 403.671875 162.066406 402.351562 162.195312 401.03125 C 162.324219 399.710938 162.519531 398.398438 162.777344 397.097656 C 163.035156 395.796875 163.359375 394.511719 163.742188 393.242188 C 164.128906 391.972656 164.574219 390.726562 165.082031 389.5 C 165.589844 388.277344 166.15625 387.078125 166.78125 385.910156 C 167.40625 384.738281 168.089844 383.601562 168.824219 382.5 C 169.5625 381.398438 170.351562 380.332031 171.191406 379.308594 C 172.035156 378.28125 172.925781 377.300781 173.863281 376.363281 C 174.800781 375.425781 175.78125 374.535156 176.808594 373.691406 C 177.832031 372.851562 178.898438 372.0625 180 371.324219 C 181.101562 370.589844 182.238281 369.90625 183.410156 369.28125 C 184.578125 368.65625 185.777344 368.089844 187 367.582031 C 188.226562 367.074219 189.472656 366.628906 190.742188 366.242188 C 192.011719 365.859375 193.296875 365.535156 194.597656 365.277344 C 195.898438 365.019531 197.210938 364.824219 198.53125 364.695312 C 199.851562 364.566406 201.171875 364.5 202.5 364.5 L 509.894531 364.5 L 416.746094 271.753906 C 415.804688 270.8125 414.910156 269.828125 414.066406 268.796875 C 413.21875 267.769531 412.425781 266.699219 411.6875 265.59375 C 410.949219 264.484375 410.265625 263.34375 409.636719 262.167969 C 409.007812 260.996094 408.441406 259.792969 407.929688 258.5625 C 407.421875 257.332031 406.972656 256.078125 406.585938 254.804688 C 406.199219 253.53125 405.875 252.238281 405.617188 250.933594 C 405.355469 249.628906 405.160156 248.3125 405.03125 246.984375 C 404.898438 245.660156 404.835938 244.332031 404.835938 243 C 404.835938 241.667969 404.898438 240.339844 405.03125 239.015625 C 405.160156 237.6875 405.355469 236.371094 405.617188 235.066406 C 405.875 233.761719 406.199219 232.46875 406.585938 231.195312 C 406.972656 229.921875 407.421875 228.667969 407.929688 227.4375 C 408.441406 226.207031 409.007812 225.003906 409.636719 223.832031 C 410.265625 222.65625 410.949219 221.515625 411.6875 220.40625 C 412.425781 219.300781 413.21875 218.230469 414.066406 217.203125 C 414.910156 216.171875 415.804688 215.1875 416.746094 214.246094 C 417.6875 213.304688 418.671875 212.410156 419.703125 211.566406 C 420.730469 210.71875 421.800781 209.925781 422.90625 209.1875 C 424.015625 208.449219 425.15625 207.765625 426.332031 207.136719 C 427.503906 206.507812 428.707031 205.941406 429.9375 205.429688 C 431.167969 204.921875 432.421875 204.472656 433.695312 204.085938 C 434.96875 203.699219 436.261719 203.375 437.566406 203.117188 C 438.871094 202.855469 440.1875 202.660156 441.515625 202.53125 C 442.839844 202.398438 444.167969 202.335938 445.5 202.335938 C 446.832031 202.335938 448.160156 202.398438 449.484375 202.53125 C 450.8125 202.660156 452.128906 202.855469 453.433594 203.117188 C 454.738281 203.375 456.03125 203.699219 457.304688 204.085938 C 458.578125 204.472656 459.832031 204.921875 461.0625 205.429688 C 462.292969 205.941406 463.496094 206.507812 464.667969 207.136719 C 465.84375 207.765625 466.984375 208.449219 468.09375 209.1875 C 469.199219 209.925781 470.269531 210.71875 471.296875 211.566406 C 472.328125 212.410156 473.3125 213.304688 474.253906 214.246094 L 636.253906 376.246094 C 639.976562 380.132812 642.8125 384.589844 644.761719 389.609375 C 645.761719 392.050781 646.519531 394.566406 647.03125 397.15625 C 647.542969 399.746094 647.796875 402.359375 647.796875 405 C 647.796875 407.640625 647.542969 410.253906 647.03125 412.84375 C 646.519531 415.433594 645.761719 417.949219 644.761719 420.390625 C 642.8125 425.410156 639.976562 429.867188 636.253906 433.753906 Z M 636.253906 433.753906 " fill-opacity="1" fill-rule="nonzero"/></svg>