<svg xmlns="http://www.w3.org/2000/svg" xmlns:xlink="http://www.w3.org/1999/xlink" width="600" zoomAndPan="magnify" viewBox="0 0 450 675.000002" height="900" preserveAspectRatio="xMidYMid meet" version="1.0"><defs><clipPath id="49ea274114"><path d="M 0.332031 0 L 449.667969 0 L 449.667969 674 L 0.332031 674 Z M 0.332031 0 " clip-rule="nonzero"/></clipPath><clipPath id="b8db747450"><path d="M 21.300781 0 L 428.699219 0 C 440.277344 0 449.667969 9.386719 449.667969 20.96875 L 449.667969 653.03125 C 449.667969 664.613281 440.277344 674 428.699219 674 L 21.300781 674 C 9.722656 674 0.332031 664.613281 0.332031 653.03125 L 0.332031 20.96875 C 0.332031 9.386719 9.722656 0 21.300781 0 Z M 21.300781 0 " clip-rule="nonzero"/></clipPath></defs><g clip-path="url(#49ea274114)"><g clip-path="url(#b8db747450)"><path stroke-linecap="butt" transform="matrix(0.748891, 0, 0, 0.748891, 0.332845, 0.0000199704)" fill="none" stroke-linejoin="miter" d="M 27.998668 -0.0000266667 L 572.001343 -0.0000266667 C 587.461714 -0.0000266667 600.001097 12.53414 600.001097 27.999728 L 600.001097 871.998279 C 600.001097 887.463866 587.461714 899.998033 572.001343 899.998033 L 27.998668 899.998033 C 12.538297 899.998033 -0.00108651 887.463866 -0.00108651 871.998279 L -0.00108651 27.999728 C -0.00108651 12.53414 12.538297 -0.0000266667 27.998668 -0.0000266667 Z M 27.998668 -0.0000266667 " stroke="#f79f0e" stroke-width="10" stroke-opacity="1" stroke-miterlimit="4"/></g></g></svg>